<svg width="13" height="13" viewBox="0 0 13 13" fill="none" xmlns="http://www.w3.org/2000/svg">
<path fill-rule="evenodd" clip-rule="evenodd" d="M11.2273 0C12.2063 0 13 0.79368 13 1.77273V11.2273C13 12.2063 12.2063 13 11.2273 13H1.77273C0.79368 13 0 12.2063 0 11.2273V1.77273C0 0.79368 0.79368 0 1.77273 0H11.2273ZM11.2273 1.18182C11.5536 1.18182 11.8182 1.44638 11.8182 1.77273V11.2273C11.8182 11.5536 11.5536 11.8182 11.2273 11.8182H8.27273V7.68176H9.49957C9.7539 7.68176 9.97969 7.51902 10.0602 7.2777L10.3219 6.49238C10.4176 6.20537 10.204 5.90903 9.90151 5.90903H8.27273V4.72723C8.27273 4.43177 8.56818 4.13632 8.86364 4.13632H10.0455C10.3718 4.13632 10.6364 3.87175 10.6364 3.54541V3.14005C10.6364 2.94917 10.5145 2.77804 10.3299 2.72933C9.55529 2.52492 8.86364 2.52492 8.86364 2.52492C7.38636 2.52492 6.5 3.54541 6.5 4.43177V5.90903H5.31818C4.99183 5.90903 4.72727 6.17358 4.72727 6.49994V7.09085C4.72727 7.41721 4.99183 7.68176 5.31818 7.68176H6.5V11.8182H1.77273C1.44638 11.8182 1.18182 11.5536 1.18182 11.2273V1.77273C1.18182 1.44638 1.44638 1.18182 1.77273 1.18182H11.2273Z" fill="#C8F700"/>
</svg>
