<svg width="13" height="13" viewBox="0 0 13 13" fill="none" xmlns="http://www.w3.org/2000/svg">
<path fill-rule="evenodd" clip-rule="evenodd" d="M4.93873 11.1559C5.06299 11.3889 5.18743 11.5987 5.30638 11.7847C4.0426 11.5005 2.94599 10.7746 2.18716 9.77766C2.68797 9.49563 3.32941 9.20328 4.10053 8.98936C4.3197 9.84894 4.6289 10.575 4.93873 11.1559ZM5.89463 10.6461C5.62546 10.1415 5.35571 9.51131 5.16136 8.7646C5.57974 8.70249 6.02637 8.66667 6.50007 8.66667C6.97371 8.66667 7.42033 8.70249 7.83864 8.76453C7.64429 9.51131 7.37454 10.1415 7.10537 10.6461C6.88957 11.0508 6.67456 11.3738 6.5 11.6102C6.32544 11.3738 6.11043 11.0508 5.89463 10.6461ZM4.875 6.5C4.875 6.92185 4.90338 7.32225 4.95343 7.70026C5.43609 7.62623 5.95212 7.58333 6.50007 7.58333C7.04795 7.58333 7.56398 7.62616 8.04657 7.70026C8.09662 7.32218 8.125 6.92185 8.125 6.5C8.125 6.07815 8.09662 5.67782 8.04657 5.29974C7.56398 5.37377 7.04795 5.41667 6.50007 5.41667C5.95212 5.41667 5.43609 5.37377 4.95343 5.29974C4.90338 5.67775 4.875 6.07815 4.875 6.5ZM3.89052 5.07636C3.82761 5.52341 3.79167 5.99834 3.79167 6.5C3.79167 7.00166 3.82761 7.47659 3.89052 7.92364C2.97077 8.17057 2.20915 8.51875 1.62012 8.85379C1.27615 8.14204 1.08333 7.34356 1.08333 6.5C1.08333 5.65644 1.27615 4.85798 1.62011 4.14619C2.20908 4.48119 2.97072 4.8294 3.89052 5.07636ZM5.16136 4.23544C5.57974 4.29753 6.02637 4.33333 6.50007 4.33333C6.97371 4.33333 7.42033 4.29753 7.83864 4.23545C7.64429 3.48873 7.37454 2.85851 7.10537 2.35387C6.88957 1.94923 6.67456 1.62613 6.5 1.38979C6.32544 1.62613 6.11043 1.94923 5.89463 2.35385C5.62546 2.85849 5.35571 3.48872 5.16136 4.23544ZM9.10946 5.07643C9.17237 5.52348 9.20833 5.99842 9.20833 6.5C9.20833 7.00166 9.17237 7.47652 9.10946 7.92357C10.0292 8.17057 10.7909 8.51875 11.3799 8.85379C11.7238 8.14197 11.9167 7.34348 11.9167 6.5C11.9167 5.65652 11.7238 4.85801 11.3799 4.14623C10.7909 4.48122 10.0293 4.82943 9.10946 5.07643ZM10.8128 3.2224C10.312 3.50445 9.67056 3.79676 8.89951 4.0107C8.68032 3.15108 8.37113 2.425 8.0613 1.84406C7.93701 1.61111 7.81257 1.40129 7.69362 1.21528C8.95743 1.4995 10.0541 2.22543 10.8128 3.2224ZM4.10053 4.01068C3.32945 3.79673 2.68804 3.50442 2.18717 3.22236C2.94599 2.22541 4.0426 1.4995 5.30631 1.21528C5.18743 1.40129 5.06299 1.6111 4.93872 1.84405C4.6289 2.42498 4.3197 3.15106 4.10053 4.01068ZM8.89951 8.98928C8.68032 9.84894 8.37113 10.575 8.0613 11.1559C7.93701 11.3889 7.81257 11.5987 7.69362 11.7847C8.95743 11.5005 10.0541 10.7745 10.8129 9.77759C10.312 9.49556 9.67063 9.20328 8.89951 8.98928ZM6.5 13C10.0899 13 13 10.0899 13 6.5C13 2.91015 10.0899 0 6.5 0C2.91015 0 0 2.91015 0 6.5C0 10.0899 2.91015 13 6.5 13Z" fill="#C8F700"/>
</svg>
