<svg width="13" height="11" viewBox="0 0 13 11" fill="none" xmlns="http://www.w3.org/2000/svg">
<path fill-rule="evenodd" clip-rule="evenodd" d="M4.99743 3.06588C4.79109 2.97745 4.53759 2.97808 4.33205 3.06754C4.12651 3.157 4 3.32176 4 3.5V7.50001C4 7.67826 4.12651 7.84301 4.33205 7.93246C4.53759 8.02191 4.79109 8.02256 4.99743 7.93411L9.66407 5.93411C9.8718 5.84511 10 5.67945 10 5.5C10 5.32055 9.8718 5.1549 9.66407 5.0659L4.99743 3.06588ZM7.9896 5.5L5.33333 6.63841V4.36159L7.9896 5.5Z" fill="#C8F700"/>
<path fill-rule="evenodd" clip-rule="evenodd" d="M0 5.5C0 3.2085 0 2.06274 0.517246 1.25954C0.684293 1.00014 0.886492 0.772023 1.11641 0.583556C1.82834 3.64251e-08 2.8439 0 4.875 0H8.125C10.1561 0 11.1717 3.64251e-08 11.8836 0.583556C12.1135 0.772023 12.3157 1.00014 12.4828 1.25954C13 2.06274 13 3.2085 13 5.5C13 7.79148 13 8.93726 12.4828 9.74044C12.3157 9.99986 12.1135 10.228 11.8836 10.4164C11.1717 11 10.1561 11 8.125 11H4.875C2.8439 11 1.82834 11 1.11641 10.4164C0.886492 10.228 0.684293 9.99986 0.517246 9.74044C0 8.93726 0 7.79148 0 5.5ZM4.875 1.22222H8.125C9.16468 1.22222 9.85741 1.2239 10.3823 1.28806C10.8869 1.34974 11.1063 1.45718 11.2468 1.57236C11.3848 1.68544 11.5061 1.82231 11.6063 1.97795C11.7084 2.13647 11.8036 2.38402 11.8583 2.95331C11.9152 3.54546 11.9167 4.32703 11.9167 5.5C11.9167 6.67297 11.9152 7.45452 11.8583 8.04668C11.8036 8.61599 11.7084 8.86355 11.6063 9.02208C11.5061 9.17767 11.3848 9.31456 11.2468 9.42767C11.1063 9.5428 10.8869 9.65024 10.3823 9.71196C9.85741 9.77613 9.16468 9.77778 8.125 9.77778H4.875C3.83531 9.77778 3.14257 9.77613 2.61771 9.71196C2.11311 9.65024 1.89369 9.5428 1.75318 9.42767C1.61523 9.31456 1.49391 9.17767 1.39368 9.02208C1.29159 8.86355 1.19636 8.61599 1.14169 8.04668C1.08482 7.45452 1.08333 6.67297 1.08333 5.5C1.08333 4.32703 1.08482 3.54546 1.14169 2.95331C1.19636 2.38402 1.29159 2.13647 1.39368 1.97795C1.49391 1.82231 1.61523 1.68544 1.75318 1.57236C1.89369 1.45718 2.11311 1.34974 2.61771 1.28806C3.14257 1.2239 3.83531 1.22222 4.875 1.22222Z" fill="#C8F700"/>
</svg>
