<svg width="13" height="11" viewBox="0 0 13 11" fill="none" xmlns="http://www.w3.org/2000/svg">
<path fill-rule="evenodd" clip-rule="evenodd" d="M11.0989 0.735235C11.3049 0.686557 11.4485 0.638698 11.5661 0.588435C11.731 0.517987 11.8676 0.433596 12.0836 0.291469C12.2651 0.17202 12.4977 0.161618 12.6891 0.264384C12.8806 0.36715 13 0.566483 13 0.78333C13 1.42035 12.9204 1.94245 12.7362 2.40193C12.5811 2.78841 12.3633 3.10232 12.1028 3.38803C11.9927 5.36999 11.4175 6.92646 10.538 8.10563C9.62651 9.32783 8.41373 10.1105 7.13531 10.5488C5.8606 10.9858 4.51377 11.0835 3.30717 10.9355C2.1085 10.7885 1.00047 10.3927 0.228165 9.79369C0.0166674 9.62962 -0.0576788 9.34415 0.0470282 9.09817C0.151737 8.85218 0.409284 8.70727 0.67453 8.7451C1.43442 8.85336 2.1659 8.68105 2.76738 8.43471C2.64897 8.37047 2.53733 8.30093 2.43357 8.22927C1.88548 7.85087 1.44328 7.33715 1.24424 6.94013C1.16187 6.77588 1.16102 6.58264 1.24194 6.41769C1.28368 6.33254 1.34473 6.25999 1.41884 6.20465C0.618589 5.54597 0.295493 4.63493 0.295493 4.02461C0.295493 3.84313 0.379331 3.67177 0.522756 3.5601C0.583064 3.51314 0.651077 3.47893 0.722772 3.45833C0.662889 3.28345 0.61642 3.10676 0.581001 2.93571C0.423956 2.17734 0.437896 1.32137 0.608591 0.640402C0.667002 0.407372 0.861375 0.23302 1.09989 0.1997C1.33841 0.166386 1.57334 0.280773 1.69369 0.488834C2.3304 1.5895 3.50481 2.26228 4.59781 2.66081C5.11169 2.84818 5.5876 2.96757 5.94433 3.04098C6.02133 2.32166 6.22271 1.72845 6.53181 1.25729C6.9396 0.635681 7.50835 0.267902 8.11911 0.103912C9.17252 -0.178904 10.3414 0.143302 11.0989 0.735235ZM5.76044 4.20646C5.35561 4.12539 4.79922 3.98919 4.19201 3.76779C3.39002 3.47537 2.45874 3.01941 1.67865 2.31312C1.69261 2.44309 1.71243 2.57196 1.73839 2.69733C1.86913 3.32869 2.11207 3.68229 2.33248 3.79219C2.60206 3.92662 2.72699 4.24185 2.62241 4.52379C2.48083 4.90549 2.10845 4.93678 1.77011 4.85245C2.04224 5.25932 2.53135 5.66501 3.34717 5.80061C3.62855 5.8474 3.83626 6.08797 3.84086 6.37243C3.84546 6.6569 3.64564 6.904 3.36592 6.95981L2.85156 7.06241C2.93024 7.1306 3.01544 7.19748 3.10627 7.26019C3.51808 7.54454 3.93156 7.66717 4.28853 7.57819C4.55588 7.51153 4.83394 7.638 4.95872 7.8831C5.08349 8.12814 5.02184 8.42669 4.81013 8.60261C4.42964 8.91848 3.98527 9.17195 3.53992 9.38228C3.33084 9.48105 3.09719 9.57853 2.84343 9.66433C3.0386 9.70588 3.24168 9.73994 3.4514 9.76569C4.49765 9.89399 5.66218 9.80748 6.7511 9.4342C7.8363 9.06216 8.83937 8.40837 9.58982 7.40222C10.3391 6.39742 10.8621 5.00691 10.9322 3.11885C10.9377 2.9702 10.9994 2.82912 11.1049 2.72394C11.3706 2.45895 11.5902 2.15522 11.6982 1.79369C11.5091 1.85246 11.2963 1.90333 11.0428 1.95167C10.8505 1.98834 10.6524 1.92762 10.514 1.78955C10.0622 1.33899 9.16879 1.0427 8.42632 1.24204C8.07692 1.33585 7.7593 1.53894 7.52076 1.90257C7.27724 2.27383 7.09093 2.8522 7.09093 3.72997C7.09093 3.89673 7.02008 4.05569 6.89599 4.16743C6.60172 4.43232 6.10648 4.27576 5.76044 4.20646Z" fill="#C8F700"/>
</svg>
