<svg width="10" height="12" viewBox="0 0 10 12" fill="none" xmlns="http://www.w3.org/2000/svg">
<path d="M5.25209 0.0100047C5.88031 3.80157e-08 6.50392 0.00520243 7.12715 0C7.14788 0.812779 7.4641 1.54432 7.96721 2.08617L7.96644 2.08537C8.50793 2.59401 9.21252 2.92376 9.98925 2.97979L10 2.98059V4.99593C9.26625 4.97672 8.57624 4.80024 7.95416 4.4969L7.98563 4.5105C7.68476 4.35963 7.43033 4.20476 7.18856 4.03188L7.20851 4.04549C7.20391 5.50577 7.21312 6.96605 7.19892 8.42113C7.15939 9.16268 6.92299 9.83899 6.54384 10.4037L6.55151 10.3912C5.91754 11.3381 4.89059 11.9596 3.7228 11.9964H3.71743C3.67022 11.9988 3.61458 12 3.55855 12C2.89464 12 2.2741 11.8071 1.74527 11.4722L1.76062 11.4814C0.798146 10.8775 0.134237 9.84419 0.011433 8.64243L0.00989792 8.62603C0.000303864 8.37591 -0.00430132 8.12579 0.00529274 7.88088C0.193336 5.96839 1.72992 4.48889 3.59769 4.48889C3.80761 4.48889 4.01331 4.5077 4.21325 4.54332L4.19176 4.54012C4.20135 5.28006 4.17257 6.02041 4.17257 6.76035C4.01024 6.69913 3.82296 6.66351 3.62763 6.66351C2.91076 6.66351 2.30096 7.14133 2.07531 7.80844L2.07185 7.82045C2.02081 7.99133 1.99126 8.18782 1.99126 8.39112C1.99126 8.47355 1.99625 8.55519 2.00546 8.63523L2.00469 8.62563C2.1321 9.44441 2.80522 10.0623 3.61688 10.0623C3.64029 10.0623 3.66332 10.0619 3.68634 10.0607H3.68289C4.24433 10.0431 4.73171 9.72814 5.00725 9.26272L5.01109 9.25552C5.11355 9.10665 5.18378 8.92657 5.20719 8.73087L5.20758 8.72527C5.25555 7.83005 5.23636 6.94004 5.24096 6.04482C5.24557 4.02948 5.23636 2.01894 5.25056 0.00880414L5.25209 0.0100047Z" fill="#C8F700"/>
</svg>
